<svg width="24" height="24" viewBox="0 0 24 24" fill="none" xmlns="http://www.w3.org/2000/svg">
<path d="M3 3.75C3 3.33579 3.33579 3 3.75 3H11.25C11.6642 3 12 3.33579 12 3.75V5.25C12 5.66421 11.6642 6 11.25 6C10.8358 6 10.5 5.66421 10.5 5.25V4.5H4.5V10.5H5.25C5.66421 10.5 6 10.8358 6 11.25C6 11.6642 5.66421 12 5.25 12H3.75C3.33579 12 3 11.6642 3 11.25V3.75Z" fill="#121212"/>
<path d="M21 20.25C21 20.6642 20.6642 21 20.25 21H12.75C12.3358 21 12 20.6642 12 20.25V18.75C12 18.3358 12.3358 18 12.75 18C13.1642 18 13.5 18.3358 13.5 18.75V19.5H19.5V13.5H18.75C18.3358 13.5 18 13.1642 18 12.75C18 12.3358 18.3358 12 18.75 12H20.25C20.6642 12 21 12.3358 21 12.75V20.25Z" fill="#121212"/>
<path d="M7 7.75C7 7.33579 7.33579 7 7.75 7H16.25C16.6642 7 17 7.33579 17 7.75V16.25C17 16.6642 16.6642 17 16.25 17H7.75C7.33579 17 7 16.6642 7 16.25V7.75ZM8.5 8.5V15.5H15.5V8.5H8.5Z" fill="#121212"/>
</svg>
