<svg width="24" height="24" viewBox="0 0 24 24" fill="none" xmlns="http://www.w3.org/2000/svg">
<path d="M11.3274 3C11.7082 3 12.0537 3.03601 12.3743 3.11328C12.6913 3.18992 12.8582 3.51934 12.7922 3.83887C12.7024 4.27299 12.2179 4.52845 11.7776 4.47656C11.6049 4.45621 11.423 4.44531 11.2385 4.44531C9.97162 4.44534 9.23767 5.268 8.97095 6.5127L8.50513 8.69043H11.5637C12.1058 8.69047 12.6058 8.98342 12.8713 9.45605L14.8645 13.0029L18.8752 8.90723C19.0111 8.76868 19.1968 8.69043 19.3909 8.69043C20.0307 8.69046 20.3543 9.46099 19.9065 9.91797L15.5979 14.3145L18.2131 18.6494C18.5191 19.1569 18.1534 19.8037 17.5608 19.8037C17.2943 19.8037 17.0473 19.6646 16.9094 19.4365L14.4866 15.4258L10.2092 19.5967C10.0729 19.7296 9.88989 19.8037 9.69946 19.8037C9.0449 19.8037 8.72077 19.0093 9.18872 18.5518L13.7307 14.1143L11.5393 10.1533C11.5251 10.1541 11.5107 10.1572 11.4963 10.1572H8.1936L6.65942 17.3926L6.52954 18.0605L6.52173 18.0693C6.2777 18.9527 5.85003 19.692 5.21899 20.2119C4.76293 20.5876 4.23052 20.8253 3.64673 20.9326C3.23369 21.0085 2.89008 20.6592 2.88989 20.2393C2.88989 19.8192 3.23989 19.4984 3.63989 19.3701C3.875 19.2947 4.07797 19.1816 4.2522 19.0381C4.56947 18.7766 4.84006 18.3702 5.02173 17.7783L6.63794 10.1572H5.16431C4.69813 10.157 4.35076 9.72757 4.44751 9.27148C4.51952 8.9329 4.81815 8.6906 5.16431 8.69043H6.94849L7.46021 6.29004C7.97142 3.97846 9.43814 3.00004 11.3274 3Z" fill="#121212"/>
</svg>
