<svg width="24" height="24" viewBox="0 0 24 24" fill="none" xmlns="http://www.w3.org/2000/svg">
<path d="M20.8658 20.6782C20.7256 20.8799 20.4956 21.0001 20.25 21.0001H13.75C13.3358 21.0001 13 20.6643 13 20.2501L13 2.75007C13 2.38703 13.26 2.07611 13.6173 2.0119C13.9747 1.94768 14.3267 2.14861 14.4531 2.48893L20.9531 19.9889C21.0386 20.2191 21.006 20.4766 20.8658 20.6782ZM14.5 6.92332L14.5 19.5001H19.1714L14.5 6.92332Z" fill="#121212"/>
<path d="M3.13423 20.6782C2.99404 20.4766 2.96143 20.2191 3.04694 19.9889L9.54694 2.48893C9.67334 2.14861 10.0253 1.94768 10.3827 2.0119C10.74 2.07611 11 2.38703 11 2.75007L11 20.2501C11 20.6643 10.6642 21.0001 10.25 21.0001H3.75C3.50444 21.0001 3.27442 20.8799 3.13423 20.6782ZM9.5 6.92332L4.82864 19.5001H9.5L9.5 6.92332Z" fill="#121212"/>
</svg>
