<svg width="24" height="24" viewBox="0 0 24 24" fill="none" xmlns="http://www.w3.org/2000/svg">
<path d="M18 3C20.2091 3 22 4.79086 22 7C22 9.18949 20.2409 10.9681 18.0588 10.9996L14.9621 12.0051L17.9365 13.0005C17.9576 13.0002 17.9788 13 18 13C20.2091 13 22 14.7909 22 17C22 19.2091 20.2091 21 18 21C15.7909 21 14 19.2091 14 17C14 15.6917 14.6281 14.53 15.5993 13.8003L13.8609 13.2186C13.6758 13.6169 13.4506 14.0582 13.1953 14.4694C12.9931 14.7952 12.7611 15.1201 12.5025 15.3945C12.2524 15.6598 11.9387 15.9197 11.562 16.0598C10.6674 16.4175 9.8119 16.7414 8.76261 17.1386L8.76058 17.1394C8.34639 17.2962 7.902 17.4644 7.4131 17.6506C5.78506 18.2731 4.46751 18.0056 3.55525 17.5506C3.10857 17.3277 2.76796 17.0651 2.53722 16.8565C2.40189 16.7341 2.27041 16.6038 2.15762 16.46C2.01359 16.2745 1.96476 16.0323 2.02569 15.8055C2.08661 15.5787 2.25026 15.3935 2.46785 15.3051L10.6077 12L2.46785 8.6949C2.24806 8.60566 2.08345 8.4177 2.02397 8.18806C1.94266 7.87416 2.1002 7.59149 2.2792 7.40144C2.34361 7.33305 2.43513 7.24174 2.55308 7.13839C2.78804 6.93251 3.13395 6.67351 3.58529 6.45421C4.50552 6.00709 5.83175 5.74368 7.4589 6.36572C7.93078 6.54548 8.35778 6.70723 8.75453 6.85752C9.81173 7.258 10.6546 7.57727 11.562 7.94013C11.9387 8.0803 12.2524 8.34017 12.5025 8.60548C12.7611 8.87988 12.9931 9.20472 13.1953 9.53058C13.4513 9.94305 13.6772 10.3858 13.8626 10.785L15.6192 10.2146C14.6367 9.48581 14 8.31726 14 7C14 4.79086 15.7909 3 18 3ZM15.5 7C15.5 8.38071 16.6193 9.5 18 9.5C19.3807 9.5 20.5 8.38071 20.5 7C20.5 5.61929 19.3807 4.5 18 4.5C16.6193 4.5 15.5 5.61929 15.5 7ZM12.3429 11.0856C12.2143 10.8276 12.0724 10.5657 11.9209 10.3216C11.7498 10.0461 11.5774 9.81098 11.4109 9.63431C11.2386 9.45153 11.1107 9.37206 11.0368 9.34517C11.0293 9.34246 11.0219 9.33963 11.0145 9.33668C10.1171 8.97773 9.28985 8.66434 8.23475 8.26466C7.8359 8.11357 7.40363 7.94982 6.92356 7.76693C5.7361 7.31291 4.84457 7.51224 4.24928 7.7993L12.3429 11.0856ZM12.3429 12.9144L4.22744 16.2096C4.80776 16.4984 5.68701 16.7047 6.87754 16.2495C7.37638 16.0595 7.82721 15.8888 8.24427 15.7309C9.29089 15.3347 10.1302 15.017 11.0145 14.6633C11.0219 14.6603 11.0293 14.6575 11.0368 14.6548C11.1107 14.6279 11.2386 14.5484 11.4109 14.3657C11.5774 14.189 11.7498 13.9539 11.9209 13.6783C12.0724 13.4342 12.2143 13.1724 12.3429 12.9144ZM18 14.5C16.6193 14.5 15.5 15.6193 15.5 17C15.5 18.3807 16.6193 19.5 18 19.5C19.3807 19.5 20.5 18.3807 20.5 17C20.5 15.6193 19.3807 14.5 18 14.5Z" fill="#121212"/>
</svg>
