<svg width="24" height="24" viewBox="0 0 24 24" fill="none" xmlns="http://www.w3.org/2000/svg">
<path d="M11.9961 2C12.4103 2 12.7461 2.33579 12.7461 2.75V7H14.7114C15.7889 7 16.9961 7.90806 16.9961 9.35145V11.25H21.2461C21.6603 11.25 21.9961 11.5858 21.9961 12C21.9961 12.4142 21.6603 12.75 21.2461 12.75H16.9961V14.6486C16.9961 15.2905 16.8016 15.892 16.3744 16.3378C15.9437 16.7871 15.3513 17 14.7114 17H12.7461V21.25C12.7461 21.6642 12.4103 22 11.9961 22C11.5819 22 11.2461 21.6642 11.2461 21.25V17H9.28082C8.04837 17 6.99609 16.0564 6.99609 14.6486V12.75H2.75C2.33579 12.75 2 12.4142 2 12C2 11.5858 2.33579 11.25 2.75 11.25H6.99609V9.35145C6.99609 8.67892 7.31493 8.09609 7.71982 7.69471C8.11753 7.30047 8.68125 7 9.28082 7H11.2461V2.75C11.2461 2.33579 11.5819 2 11.9961 2ZM15.4961 9.35145C15.4961 8.82383 15.0506 8.5 14.7114 8.5H9.28082C9.17205 8.5 8.96841 8.5691 8.77584 8.76C8.59046 8.94377 8.49609 9.16166 8.49609 9.35145V14.6486C8.49609 15.2117 8.86048 15.5 9.28082 15.5H14.7114C15.0159 15.5 15.1908 15.4049 15.2914 15.2999C15.3955 15.1913 15.4961 14.9921 15.4961 14.6486V9.35145Z" fill="#121212"/>
</svg>
