<svg width="24" height="24" viewBox="0 0 24 24" fill="none" xmlns="http://www.w3.org/2000/svg">
<path d="M13.9206 3.20807C15.9229 3.64658 17.7157 4.75701 19.0027 6.35532C19.8642 7.4252 20.4646 8.67076 20.7692 9.99333C20.8621 10.397 20.6102 10.7995 20.2066 10.8925C19.8029 10.9854 19.4004 10.7336 19.3074 10.3299C19.0534 9.2267 18.5526 8.18804 17.8344 7.29609C16.7614 5.96364 15.2675 5.03859 13.5997 4.67334C11.9319 4.30808 10.1898 4.52421 8.6612 5.28646C7.18006 6.02503 5.98497 7.23351 5.26033 8.7223H7.87494C8.28915 8.7223 8.62494 9.05809 8.62494 9.4723C8.62494 9.88652 8.28915 10.2223 7.87494 10.2223H3.75C3.33579 10.2223 3 9.88652 3 9.4723V4.64661C3 4.23239 3.33579 3.89661 3.75 3.89661C4.16421 3.89661 4.5 4.23239 4.5 4.64661V7.03516C5.36866 5.72229 6.57016 4.65301 7.99183 3.94409C9.82682 3.02907 11.9184 2.76956 13.9206 3.20807Z" fill="#121212"/>
<path d="M14.9167 14.7577C14.9167 14.3435 15.2525 14.0077 15.6667 14.0077H20.25C20.6642 14.0077 21 14.3435 21 14.7577V19.8132C21 20.2274 20.6642 20.5632 20.25 20.5632C19.8358 20.5632 19.5 20.2274 19.5 19.8132V16.9643C18.6313 18.2773 17.4298 19.3466 16.0081 20.0555C14.1732 20.9705 12.0817 21.2305 10.0793 20.792C8.07699 20.3535 6.28426 19.2431 4.99724 17.6448C4.13578 16.5749 3.5354 15.3293 3.23084 14.0067C3.13789 13.6031 3.38976 13.2005 3.79341 13.1076C4.19706 13.0146 4.59963 13.2665 4.69258 13.6701C4.94665 14.7734 5.44741 15.8121 6.16555 16.704C7.23849 18.0364 8.73244 18.9615 10.4002 19.3267C12.0678 19.692 13.81 19.4755 15.3387 18.7132C16.7427 18.0131 17.8897 16.8908 18.6225 15.5077H15.6667C15.2525 15.5077 14.9167 15.1719 14.9167 14.7577Z" fill="#121212"/>
</svg>
