<svg width="17" height="17" viewBox="0 0 17 17" fill="none" xmlns="http://www.w3.org/2000/svg">
<path d="M4.31734 5.74716H0.625V1.42755" stroke="#737373" stroke-width="1.25" stroke-linecap="round" stroke-linejoin="round"/>
<path d="M1.30579 4.92397C2.01099 3.39351 3.2159 2.1501 4.72133 1.39942C6.22676 0.648737 7.94257 0.435858 9.58515 0.795592C11.2277 1.15533 12.6987 2.06633 13.7549 3.37804C14.462 4.25607 14.9548 5.27841 15.2048 6.3641" stroke="#737373" stroke-width="1.25" stroke-linecap="round" stroke-linejoin="round"/>
<path d="M11.2911 10.4785H15.3937V15.0038" stroke="#737373" stroke-width="1.25" stroke-linecap="round" stroke-linejoin="round"/>
<path d="M14.7136 11.0941C14.0083 12.6245 12.8034 13.8679 11.298 14.6186C9.79258 15.3693 8.07677 15.5826 6.43419 15.2228C4.79162 14.8631 3.32063 13.9521 2.26439 12.6404C1.55742 11.7624 1.0646 10.74 0.814575 9.6543" stroke="#737373" stroke-width="1.25" stroke-linecap="round" stroke-linejoin="round"/>
</svg>
